<?xml version="1.0" encoding="UTF-8" standalone="no"?>
<!-- Created with Inkscape (http://www.inkscape.org/) -->

<svg width="241.26959mm" height="105.94725mm" viewBox="0 0 241.26959 105.94725" version="1.1" id="svg1" xml:space="preserve"
  xmlns="http://www.w3.org/2000/svg"
  xmlns:svg="http://www.w3.org/2000/svg">
  <defs id="defs1" />
      <style>
        #group_mag, #group_blok, #group_bar, #group_datum {
            transform-box: fill-box;
            transform-origin: center;
            animation: notch-tilt 8s infinite ease-in-out;
        }
        #group_mag {
            animation-delay: 0s;
        }
        #group_blok {
            animation-delay: 2s;
        }
        #group_bar {
            animation-delay: 4s;
        }
        #group_datum {
            animation-delay: 6s;
        }
        @keyframes notch-tilt {
            0% {
                transform: rotate(0deg);
            }
            2% {
                transform: rotate(3deg);  /* Quick tilt right */
            }
            4% {
                transform: rotate(-1deg); /* Slight rebound left */
            }
            6% {
                transform: rotate(0deg);  /* Return to center */
            }
            100% {
                transform: rotate(0deg);  /* Remain completely still for the rest of the 8s */
            }
        }
    </style>
  <g id="layer1" transform="translate(11.059582,135.84866)">
    <g id="group_mag">
      <path style="fill:#516ff5" d="m 62.282916,-92.04912 c -1.981865,-0.36722 -3.620199,-1.7681 -4.228227,-3.61539 -0.173644,-0.52757 -0.643256,-2.62609 -1.043581,-4.66338 -0.400325,-2.03729 -1.454909,-7.41891 -2.34352,-11.95916 -0.888611,-4.54025 -1.848498,-9.40893 -2.133081,-10.81929 -0.928108,-4.59958 -0.648138,-6.56243 1.169833,-8.20165 1.524144,-1.37427 2.421367,-1.65202 10.304857,-3.18999 4.397496,-0.85789 6.694207,-0.65889 8.367348,0.725 1.251403,1.03506 1.774031,2.41463 2.686924,7.09259 1.084121,5.5554 1.127836,5.82084 0.958625,5.82084 -0.132287,0 -5.253039,1.00293 -7.495012,1.46794 -0.685837,0.14226 -1.016069,0.12739 -1.179567,-0.0531 -0.124886,-0.13786 -0.581414,-2.06042 -1.014505,-4.27233 -0.985709,-5.03429 -0.95764,-4.9951 -3.199216,-4.46665 -1.121767,0.26446 -1.663586,0.50128 -1.821355,0.79607 -0.222043,0.41489 -0.131513,0.91963 3.182981,17.74641 0.332506,1.68804 0.914956,4.68842 1.294334,6.6675 0.85778,4.47475 0.879359,4.50536 2.949701,4.1849 1.685748,-0.26093 2.115961,-0.51588 2.115961,-1.25396 0,-0.50086 -0.697744,-4.36298 -1.428163,-7.90511 l -0.371004,-1.79916 -1.287126,0.0658 -1.287126,0.0658 -0.393848,-1.86499 c -0.216616,-1.0257 -0.399409,-2.28422 -0.406207,-2.79668 l -0.01236,-0.93172 3.069167,-0.60564 c 1.688042,-0.3331 4.021667,-0.79493 5.185833,-1.02628 3.22538,-0.64096 2.924594,-0.81993 3.473323,2.06662 0.260034,1.3679 0.563282,2.91571 0.673884,3.43959 1.051857,4.98221 2.09696,10.8515 2.09696,11.77652 0,2.85921 -2.240812,4.99075 -6.168475,5.86765 -6.209502,1.38635 -10.12964,1.93545 -11.717358,1.64126 z" id="path11" />
      <path style="fill:#516ff5" d="m 29.439429,-85.20901 c -0.142841,-0.37223 0.03471,-22.82016 0.280361,-35.44673 l 0.138107,-7.09868 5.205843,-1.00536 c 2.863214,-0.55295 5.268392,-1.00185 5.344841,-0.99757 0.07645,0.004 0.444056,0.74599 0.816904,1.64821 0.372849,0.90223 0.905612,2.14331 1.183919,2.75794 0.278307,0.61464 0.506012,1.16854 0.506012,1.2309 0,0.13124 2.686577,6.50971 3.609347,8.5693 0.343193,0.76599 0.623987,1.45373 0.623987,1.52831 0,0.11598 0.301787,0.82962 1.271026,3.00564 0.103709,0.23283 0.706786,1.66158 1.340172,3.175 0.633386,1.51341 2.495729,5.94809 4.138539,9.85482 1.642811,3.90674 2.986929,7.2454 2.986929,7.41924 0,0.23965 -0.831678,0.47938 -3.439583,0.99144 -1.891771,0.37145 -3.876011,0.73448 -4.409423,0.80674 -0.922174,0.12492 -0.981177,0.10159 -1.200511,-0.4746 -1.314376,-3.4529 -1.47794,-3.78308 -1.90539,-3.84643 -0.389188,-0.0577 -6.544175,1.05173 -7.513009,1.35418 -0.325579,0.10164 -0.370417,0.42088 -0.370417,2.63734 0,2.44269 -0.01492,2.52501 -0.47625,2.62731 -0.261937,0.0581 -2.00025,0.39952 -3.862916,0.75872 -1.862667,0.35921 -3.553823,0.70107 -3.758126,0.75968 -0.226363,0.0649 -0.425716,-0.0348 -0.510362,-0.2554 z m 12.00708,-13.73066 c 0.996559,-0.1986 1.939338,-0.43984 2.095064,-0.53608 0.291358,-0.18007 0.285723,-0.19659 -2.674375,-7.83714 -1.339355,-3.45711 -1.435235,-3.70689 -2.214766,-5.76963 -0.600409,-1.58876 -0.726301,-1.78546 -0.880542,-1.37583 -0.09898,0.26288 -0.127921,1.43046 -0.0643,2.59463 0.06362,1.16417 0.127733,4.53825 0.14248,7.49796 0.01475,2.95971 0.07864,5.51637 0.141992,5.68145 0.131303,0.34217 0.647661,0.304 3.454451,-0.25536 z" id="path10" />
      <path style="fill:#516ff5" d="m -3.2108521,-79.24678 c -0.1132382,-0.3604 -0.6456757,-2.94127 -1.1831944,-5.73527 -0.5375188,-2.794 -1.5353347,-7.88988 -2.2173686,-11.32417 -0.682034,-3.43429 -1.5384265,-7.81579 -1.9030945,-9.73667 -0.364668,-1.92087 -0.8039366,-4.15925 -0.9761524,-4.97416 -0.660599,-3.12592 -1.56892,-7.94357 -1.56892,-8.3214 0,-0.44281 0.11467,-0.47506 5.4655769,-1.53742 1.7836924,-0.35413 3.4914084,-0.6144 3.7949245,-0.57836 0.4923084,0.0584 0.6753319,0.36239 1.69638533,2.81718 6.37109637,15.31721 8.81382767,21.05926 8.95919657,21.06011 0.068888,3.9e-4 0.1930378,-5.83334 0.2758886,-12.96386 0.082851,-7.13052 0.2237718,-13.03805 0.3131579,-13.12783 0.1910956,-0.19194 8.3506782,-1.83939 9.1344002,-1.84426 0.593068,-0.004 0.258399,-1.44511 3.390224,14.60167 0.443056,2.27012 1.439713,7.366 2.214793,11.32417 2.354078,12.02177 2.601372,13.30178 2.746629,14.21667 l 0.139983,0.88168 -1.655996,0.33889 c -3.562794,0.7291 -4.648571,0.94339 -5.397173,1.06522 l -0.777842,0.12658 -0.329492,-1.54119 c -0.18122,-0.84765 -0.764339,-3.77956 -1.295819,-6.51535 -0.53148,-2.7358 -1.2471,-6.40292 -1.590268,-8.14917 -0.343167,-1.74625 -0.773307,-3.937 -0.955868,-4.86833 -0.18256,-0.93134 -0.492639,-2.40771 -0.689065,-3.28084 l -0.357137,-1.5875 -0.107625,2.75167 c -0.05919,1.51342 -0.134043,5.8914 -0.166333,9.72886 -0.04364,5.18685 -0.124654,7.01913 -0.315708,7.14064 -0.14135,0.0899 -0.590375,0.21658 -0.997834,0.28153 -0.407458,0.065 -1.359958,0.25237 -2.116666,0.41649 -0.7567088,0.16412 -1.6985261,0.32669 -2.0929277,0.36127 l -0.717094,0.0629 -0.9317845,-2.2225 c -0.5124814,-1.22238 -1.1143639,-2.65113 -1.3375165,-3.175 -0.2231526,-0.52388 -1.1774573,-2.80988 -2.120677,-5.08 -2.28218989,-5.49274 -2.19802222,-5.29323 -2.58963336,-6.13834 l -0.34329307,-0.74083 -0.013537,0.65112 c -0.007445,0.35811 0.31246102,2.31073 0.71090305,4.33916 0.39844198,2.02843 1.16873908,5.97405 1.71177118,8.76805 0.5430321,2.794 1.2647841,6.48241 1.6038932,8.19646 0.3391091,1.71405 0.6165621,3.19776 0.6165621,3.29713 0,0.16303 -2.5550763,0.72847 -6.3972742,1.41574 l -1.4231077,0.25455 z" id="path3" />
    </g>
    <g id="group_bar">
      <path style="fill:#e1272a" d="m 169.94298,-85.03497 c -0.12448,-0.55298 -0.94888,-4.72017 -1.832,-9.26042 -2.10164,-10.80478 -2.9203,-14.9954 -3.90761,-20.0025 -2.86061,-14.50746 -3.44271,-17.5858 -3.34404,-17.68447 0.0608,-0.0608 1.76608,-0.43662 3.78955,-0.83519 2.02347,-0.39858 4.15528,-0.82318 4.73737,-0.94355 1.41332,-0.29227 6.92335,-1.35987 9.38215,-1.81784 4.55953,-0.84925 7.75967,0.31731 9.19678,3.35253 0.598,1.263 0.72808,1.84258 2.69357,12.00186 0.57433,2.96862 1.14424,5.87375 1.26646,6.45583 0.98069,4.67053 1.06766,6.02896 0.49756,7.77194 -0.35472,1.0845 -1.35847,2.28997 -2.78748,3.34767 l -0.70596,0.52252 4.47105,5.78736 c 2.45908,3.18304 4.61617,6.00883 4.79353,6.27952 l 0.32248,0.49217 -1.54757,0.3294 c -1.88844,0.40196 -6.3564,1.27951 -8.17539,1.60573 -1.59582,0.28619 -0.88934,1.01344 -5.79053,-5.96079 -4.52102,-6.43327 -4.26083,-6.08526 -4.55541,-6.09304 -0.40978,-0.0108 -0.46426,0.26279 -0.25226,1.26684 0.48606,2.30211 2.07508,10.56618 2.20464,11.46571 l 0.14283,0.99171 -0.81573,0.14051 c -0.44865,0.0773 -2.68016,0.51207 -4.95892,0.96621 -2.27876,0.45414 -4.2457,0.82571 -4.37097,0.82571 -0.12528,0 -0.32962,-0.45244 -0.4541,-1.00542 z m 9.75568,-22.42669 c 0.98204,-0.20016 1.77583,-0.48969 1.98931,-0.72558 0.4063,-0.44896 0.48467,0.0251 -2.44487,-14.78898 -0.94624,-4.78493 -0.82582,-4.62084 -3.13194,-4.26781 -2.69923,0.4132 -3.23241,0.61059 -3.23241,1.19669 0,0.27902 0.3884,2.4891 0.8631,4.9113 0.47471,2.42219 1.18828,6.07086 1.58572,8.10815 0.39744,2.0373 0.83207,4.25366 0.96584,4.92526 l 0.24322,1.22109 0.76397,-0.12354 c 0.42019,-0.0679 1.49932,-0.2734 2.39806,-0.45658 z" id="path9" />
      <path style="fill:#e1272a" d="m 135.31262,-77.46028 c -0.0795,-0.12867 -0.082,-3.49295 -0.006,-7.47619 0.0765,-3.98324 0.21348,-15.03446 0.30447,-24.55827 0.1012,-10.59263 0.24463,-17.39522 0.3694,-17.52 0.11219,-0.11218 2.14978,-0.58688 4.52798,-1.05488 2.3782,-0.468 5.00805,-1.00251 5.8441,-1.18779 0.83606,-0.18529 1.65189,-0.28631 1.81296,-0.2245 0.16108,0.0618 0.65652,1.00319 1.10098,2.09195 0.44446,1.08877 0.9335,2.26532 1.08676,2.61457 0.15327,0.34925 1.47656,3.4925 2.94066,6.985 1.4641,3.4925 2.84695,6.77863 3.07299,7.3025 1.17554,2.72436 5.29305,12.52702 5.29305,12.60129 0,0.0474 0.22525,0.58905 0.50055,1.20369 0.2753,0.61464 1.62195,3.77619 2.99256,7.02566 2.34796,5.56664 2.46962,5.92451 2.10483,6.19125 -0.21295,0.15571 -0.53566,0.28272 -0.71714,0.28224 -0.18148,-4.9e-4 -2.31395,0.39201 -4.73883,0.87221 -2.46698,0.48854 -4.48352,0.79192 -4.57837,0.6888 -0.0932,-0.10137 -0.57565,-1.23205 -1.07206,-2.51264 -0.49641,-1.28058 -1.0079,-2.43538 -1.13663,-2.56622 -0.17297,-0.17579 -1.39876,-0.005 -4.69608,0.65323 -2.4541,0.49012 -4.56748,0.95631 -4.69639,1.03598 -0.16215,0.10021 -0.19602,0.95677 -0.10991,2.77923 0.0888,1.87943 0.0527,2.7208 -0.12585,2.93598 -0.13767,0.16589 -0.69968,0.36605 -1.24891,0.44481 -0.54923,0.0788 -1.33197,0.22858 -1.73943,0.33295 -0.81119,0.20778 -4.66704,0.94449 -6.0637,1.15854 -0.55233,0.0847 -0.93147,0.0478 -1.02243,-0.0994 z m 12.3778,-15.7885 c 0.87312,-0.16883 2.19177,-0.41751 2.93033,-0.55263 0.73856,-0.13511 1.38378,-0.35237 1.43383,-0.4828 0.05,-0.13042 -0.34643,-1.37692 -0.88106,-2.76999 -0.53463,-1.39307 -1.73814,-4.5331 -2.67448,-6.97785 -0.93633,-2.44475 -1.89081,-4.92125 -2.12107,-5.50334 -0.23026,-0.58208 -0.52139,-1.36789 -0.64695,-1.74625 -0.12556,-0.37835 -0.31738,-0.68791 -0.42627,-0.68791 -0.24377,0 -0.12256,18.40265 0.12373,18.78541 0.20706,0.32179 0.27321,0.3199 2.26194,-0.0646 z" id="path8" />
      <path style="fill:#e1272a" d="m 106.77332,-71.91164 c -0.1309,-0.22985 -0.44982,-1.75324 -1.31829,-6.29708 -0.92862,-4.85857 -2.54218,-13.14413 -2.84423,-14.605 -0.12035,-0.58208 -0.55115,-2.77283 -0.95733,-4.86833 -0.40618,-2.0955 -1.25482,-6.42938 -1.885867,-9.63084 -1.654321,-8.3928 -1.986433,-10.14889 -2.142624,-11.32942 l -0.139327,-1.05308 9.068628,-1.79916 c 8.2052,-1.62787 9.3004,-1.79916 11.5028,-1.79911 2.23264,6e-5 2.52337,0.0471 3.51156,0.56849 2.23664,1.18005 3.28598,3.05679 4.00184,7.15728 0.0711,0.40746 0.22128,1.16946 0.33365,1.69334 1.72742,8.05264 1.8535,10.35758 0.67063,12.25988 -0.66914,1.07612 -0.72342,1.49845 -0.19258,1.49845 0.54198,0 1.83169,1.3282 2.3466,2.41662 0.75669,1.59951 3.08664,13.35781 3.08664,15.577 0,2.24172 -0.79415,3.86733 -2.47852,5.07348 -1.92659,1.3796 -2.3343,1.49482 -12.02065,3.39694 -0.6985,0.13717 -1.93675,0.38199 -2.75167,0.54406 -0.81491,0.16206 -2.00554,0.38952 -2.64583,0.50547 -0.64029,0.11595 -1.83092,0.35292 -2.64583,0.52661 -1.65651,0.35307 -2.36559,0.3997 -2.4996,0.1644 z m 11.89677,-9.15765 c 1.09386,-0.23087 2.1178,-0.52679 2.27542,-0.6576 0.42976,-0.35667 0.36279,-1.05212 -0.5419,-5.6272 -0.45566,-2.30429 -0.9398,-4.80876 -1.07586,-5.56546 -0.28612,-1.5913 -0.66589,-2.11667 -1.53004,-2.11667 -0.84998,0 -4.24736,0.66029 -4.48539,0.87174 -0.19826,0.17613 0.0488,2.02095 0.62031,4.63159 0.16565,0.75671 0.59265,2.89984 0.9489,4.7625 0.35625,1.86267 0.69903,3.55336 0.76174,3.75709 0.14473,0.47023 0.57095,0.46235 3.02682,-0.056 z m -3.89384,-20.68206 c 1.84759,-0.36472 2.43417,-0.71408 2.43417,-1.44975 0,-0.26359 -0.23876,-1.70139 -0.53056,-3.19511 -0.29181,-1.49371 -0.67882,-3.47784 -0.86002,-4.40918 -0.18121,-0.93133 -0.47097,-2.32309 -0.64392,-3.0928 -0.40318,-1.79436 -0.73365,-1.98228 -2.77061,-1.57552 -0.79148,0.15805 -1.80125,0.34965 -2.24393,0.42577 -0.44269,0.0761 -0.86169,0.28647 -0.93114,0.46743 -0.0694,0.18096 0.18211,1.91402 0.55899,3.85124 0.37688,1.93722 0.91716,4.71284 1.20061,6.16805 0.28345,1.45521 0.56611,2.80907 0.62814,3.00859 0.12357,0.3975 0.14465,0.39617 3.15827,-0.19872 z" id="path7" />
    </g>
    <g id="group_blok">
      <path style="fill:#e1272a" d="m 79.993473,-46.72549 c -0.123653,-0.31894 -0.52327,-2.15152 -0.888037,-4.0724 -0.876224,-4.61422 -2.045494,-10.63798 -2.32139,-11.95917 -0.121553,-0.58208 -0.406093,-2.01083 -0.632312,-3.175 -2.016655,-10.37811 -3.663686,-18.83111 -3.859968,-19.81036 -0.130493,-0.65104 -0.185544,-1.31848 -0.122334,-1.4832 0.07686,-0.2003 1.297898,-0.52544 3.686705,-0.98171 4.860061,-0.92828 5.159278,-0.97367 5.159278,-0.78273 0,0.0916 0.370988,2.03105 0.824416,4.30981 0.453429,2.27876 1.124935,5.71482 1.492236,7.6357 1.141371,5.96902 1.363502,6.985 1.527196,6.985 0.19861,0 0.275884,-0.5358 0.702133,-4.86834 0.188982,-1.92087 0.476963,-4.73075 0.639959,-6.24416 0.162996,-1.51342 0.353917,-3.46605 0.42427,-4.33917 0.263567,-3.27106 0.556914,-4.84921 0.921888,-4.95959 0.835484,-0.25267 8.046893,-1.60208 8.561711,-1.60208 0.659566,0 0.672554,0.0967 0.341083,2.54 -0.239716,1.76695 -0.730663,6.02929 -1.048354,9.10167 -0.114359,1.10596 -0.297691,2.62996 -0.407405,3.38667 -0.109714,0.7567 -0.312561,2.4733 -0.450772,3.81466 l -0.251293,2.43882 1.007753,1.90034 c 0.554264,1.04519 1.268889,2.37659 1.588054,2.95867 0.319166,0.58209 1.010104,1.86796 1.535419,2.8575 0.525314,0.98955 1.597781,2.9898 2.383261,4.445 2.20762,4.08991 3.91511,7.34322 3.91511,7.45952 0,0.13796 -1.36241,0.48303 -3.59833,0.91138 -0.98954,0.18957 -2.437096,0.47917 -3.216786,0.64355 -2.026829,0.42733 -2.643416,0.3908 -2.993947,-0.17736 -0.161604,-0.26194 -1.367257,-2.57175 -2.67923,-5.13292 -4.760371,-9.29295 -6.423804,-12.49631 -6.701713,-12.90585 -0.272871,-0.4021 -0.283374,-0.3982 -0.284632,0.10584 -0.0012,0.46657 1.689824,9.34836 3.082181,16.18892 0.4792,2.35428 0.637133,3.70192 0.433835,3.70192 -0.09531,0 -7.404848,1.43426 -8.093685,1.58812 -0.343233,0.0767 -0.505378,-0.0382 -0.6763,-0.47905 z" id="path6" />
      <path style="fill:#e1272a" d="m 55.863648,-42.50815 c -1.373378,-0.49217 -2.615156,-1.6586 -3.191131,-2.99749 -0.235984,-0.54855 -0.820162,-2.98766 -1.298174,-5.42023 -0.478012,-2.43257 -1.235274,-6.28023 -1.682806,-8.55035 -0.447531,-2.27013 -1.256015,-6.4135 -1.796632,-9.2075 -0.540616,-2.794 -1.120162,-5.78075 -1.28788,-6.63723 -0.411091,-2.09928 -0.384572,-2.97656 0.131691,-4.3564 0.529559,-1.41537 1.849429,-2.63361 3.564312,-3.28986 2.02174,-0.77367 10.466513,-2.38864 12.614888,-2.41245 2.478325,-0.0275 3.931337,0.58213 5.044821,2.11648 1.015146,1.39885 0.984287,1.27049 3.733822,15.53196 0.594779,3.08504 1.216195,6.27591 1.380923,7.09083 0.164729,0.81492 0.698809,3.52954 1.186844,6.0325 l 0.887337,4.55083 -0.345721,1.3328 c -0.574541,2.21493 -1.806655,3.42664 -4.343153,4.27126 -1.994996,0.6643 -9.604906,2.129 -11.672373,2.24661 -1.425924,0.0811 -2.033091,0.0185 -2.926768,-0.30176 z m 8.621116,-7.30938 c 1.17647,-0.39128 1.235977,-0.6752 0.703658,-3.35724 -0.260418,-1.31209 -0.813679,-4.14774 -1.22947,-6.30145 -0.41579,-2.15371 -1.028057,-5.29696 -1.360592,-6.985 -0.332534,-1.68804 -0.952078,-4.87892 -1.376763,-7.09083 -0.999017,-5.20326 -0.951481,-5.15645 -4.283264,-4.21726 -1.104863,0.31145 -1.11125,0.31815 -1.11125,1.1661 0,0.46908 0.09146,1.25223 0.203246,1.74034 0.111785,0.48812 0.642609,3.17348 1.179609,5.96748 1.927327,10.02786 2.865265,14.83928 3.156569,16.1925 0.162893,0.75671 0.354992,1.73043 0.426885,2.16383 0.07189,0.4334 0.293571,0.8861 0.492619,1.006 0.400083,0.241 2.063627,0.0931 3.198753,-0.28447 z" id="path5" />
      <path style="fill:#e1272a" d="m 32.236994,-37.02217 c -0.113762,-0.18407 -1.250414,-5.8132 -2.97397,-14.72822 -0.427634,-2.21192 -1.142691,-5.87904 -1.589016,-8.14917 -0.446325,-2.27012 -1.156094,-5.93725 -1.577264,-8.14916 -0.421169,-2.21192 -0.854151,-4.40267 -0.962182,-4.86833 -0.397167,-1.71199 -0.845812,-4.18647 -0.845812,-4.66505 0,-0.55912 0.04814,-0.57918 2.54,-1.05824 0.989542,-0.19024 2.742181,-0.53286 3.894754,-0.76138 1.201707,-0.23826 2.174799,-0.33628 2.281288,-0.22979 0.174244,0.17424 1.003413,4.13965 2.510484,12.00612 0.356852,1.86267 0.785985,4.05342 0.953627,4.86833 0.167642,0.81492 0.592297,2.95805 0.943677,4.7625 2.056317,10.5599 2.496547,12.7276 2.607283,12.83834 0.112077,0.11208 4.98483,-0.76646 8.440671,-1.52182 0.779689,-0.17041 1.466428,-0.30985 1.526086,-0.30985 0.294111,0 1.502359,6.12273 1.253052,6.34977 -0.0963,0.0877 -1.746714,0.46574 -3.667589,0.84009 -1.920875,0.37435 -6.084686,1.19577 -9.252912,1.82539 -6.538281,1.29933 -5.925727,1.20361 -6.082177,0.95047 z" id="path4" />
      <path style="fill:#e1272a" d="m 4.8331922,-35.29331 c -0.3792048,-1.94998 -1.0119324,-5.21229 -1.4060613,-7.24958 -0.3941289,-2.03729 -0.8147816,-4.18042 -0.9347838,-4.7625 -0.1200023,-0.58208 -0.5503238,-2.77283 -0.9562701,-4.86833 -0.4059463,-2.0955 -0.83363055,-4.28625 -0.95040942,-4.86834 -0.11677887,-0.58208 -0.4913296,-2.48708 -0.83233497,-4.23333 -0.34100536,-1.74625 -0.97875781,-5.00964 -1.41722771,-7.25198 -0.4953591,-2.53328 -0.7219889,-4.15072 -0.598536,-4.27172 0.1092751,-0.10711 1.86555697,-0.5269 3.9028486,-0.93287 13.7035995,-2.73071 13.6513595,-2.72361 15.6778325,-2.12805 1.407923,0.41378 2.368411,1.11502 3.087527,2.25418 0.717897,1.13722 0.775826,1.35218 1.896841,7.03878 0.805675,4.08695 0.946695,5.16539 0.878624,6.7192 -0.06499,1.48336 -0.172192,1.9741 -0.539919,2.47147 -0.666217,0.90111 -0.652947,1.01795 0.165761,1.45948 1.540228,0.83064 2.024906,2.124 3.266774,8.71734 0.427581,2.27013 0.877452,4.64248 0.999712,5.2719 0.448734,2.31018 -0.523644,4.68043 -2.408155,5.87006 -1.276528,0.80584 -2.652194,1.24475 -5.89442,1.88064 -1.563693,0.30668 -4.979402,0.97868 -7.590465,1.49333 -2.611063,0.51466 -4.9522468,0.93574 -5.2026308,0.93574 -0.42032,0 -0.5081354,-0.27198 -1.144707,-3.54542 z m 10.7111738,-4.3965 c 2.187705,-0.48845 2.394385,-0.61263 2.394385,-1.43866 0,-0.55792 -1.250598,-7.36683 -1.804026,-9.82206 -0.189819,-0.84211 -0.774062,-0.96077 -2.804354,-0.56956 -1.016099,0.1958 -1.952303,0.4622 -2.080453,0.59201 -0.169778,0.17198 0.02271,1.55699 0.709397,5.10436 1.241739,6.4147 1.252831,6.45583 1.741126,6.45583 0.221122,0 1.050889,-0.14487 1.843925,-0.32192 z m -3.761287,-17.68445 c 1.881761,-0.30576 2.540696,-0.58612 2.679755,-1.14018 0.143725,-0.57264 -1.720967,-10.22337 -2.052528,-10.62287 -0.131115,-0.15799 -0.500793,-0.28724 -0.821509,-0.28724 -0.719329,0 -3.6430981,0.63284 -3.8696816,0.83758 -0.091008,0.0822 0.081735,1.42761 0.3838732,2.98972 0.9948096,5.14334 1.6093864,8.11277 1.7141814,8.28233 0.1337403,0.2164 0.29977,0.21138 1.965909,-0.0593 z" id="path2" />
    </g>
    <g id="group_datum">
      <path style="fill:#f4eed9" d="m 224.379,-75.55847 c -0.79616,-0.33185 -1.05655,-1.05081 -1.84149,-5.08447 -0.4191,-2.15371 -0.87558,-4.42724 -1.01441,-5.0523 -0.20943,-0.94301 -0.20007,-1.23128 0.055,-1.69334 0.4283,-0.77583 1.53965,-1.26269 3.55178,-1.55597 1.61917,-0.23599 1.75409,-0.22514 2.30396,0.18536 0.41436,0.30934 0.65473,0.75411 0.82728,1.53078 0.13377,0.60211 0.3013,1.32614 0.37228,1.60895 0.11428,0.45533 0.038,0.537 -0.66655,0.7133 -2.08226,0.52108 -1.90107,0.57989 -2.1899,-0.71073 -0.24102,-1.077 -0.3057,-1.16438 -0.8619,-1.16438 -0.54146,0 -0.59929,0.0685 -0.58099,0.68792 0.0112,0.37835 0.13259,1.16416 0.26983,1.74625 0.22189,0.94118 0.3075,1.05293 0.77343,1.00958 0.28815,-0.0268 1.11598,-0.0744 1.8396,-0.10584 1.78441,-0.0774 2.01915,0.19046 2.58255,2.94696 0.55488,2.71486 0.55133,3.09197 -0.0353,3.75383 -0.71866,0.8108 -4.35991,1.61145 -5.38516,1.1841 z m 2.854,-2.38572 c 0.15371,-0.18534 0.10613,-0.74001 -0.15887,-1.85208 -0.36218,-1.51987 -0.40308,-1.58565 -0.96007,-1.54413 -0.31998,0.0239 -0.62748,0.0891 -0.68334,0.14493 -0.10581,0.10581 0.34389,3.0793 0.50772,3.35712 0.15103,0.25609 1.05575,0.18213 1.29456,-0.10584 z" id="path41" />
      <path style="fill:#f4eed9" d="m 215.78686,-73.59641 c -0.0527,-0.0921 -0.16026,-0.52435 -0.23899,-0.96067 -0.1195,-0.6623 0.0339,-1.22155 0.92896,-3.38666 0.58965,-1.42635 1.16543,-2.75876 1.27951,-2.96091 0.52857,-0.93666 0.0114,-4.39495 -0.65724,-4.39495 -0.6236,0 -0.85596,0.4936 -0.59064,1.2547 0.13509,0.3875 0.15792,0.75714 0.0528,0.8554 -0.29203,0.27306 -2.46267,0.6711 -2.64817,0.4856 -0.23678,-0.23677 -0.47318,-2.46458 -0.32442,-3.05727 0.1778,-0.7084 1.04169,-1.13228 3.15376,-1.54743 1.77799,-0.34948 1.87325,-0.34838 2.51891,0.0291 0.84736,0.49545 1.22392,1.53188 1.39005,3.82601 0.12691,1.75237 0.007,2.33691 -0.9057,4.39801 -0.15458,0.34925 -0.4745,1.13506 -0.71092,1.74625 -0.50125,1.29576 -0.5384,1.27727 1.63099,0.81187 0.72942,-0.15649 1.36371,-0.22385 1.40954,-0.14971 0.0458,0.0741 0.14814,0.48037 0.22738,0.90271 0.17511,0.93342 0.0614,1.02006 -1.78901,1.36287 -2.48767,0.46089 -3.91932,0.74523 -4.27839,0.84976 -0.19393,0.0565 -0.39573,0.0273 -0.44845,-0.0647 z" id="path40" />
      <path style="fill:#f4eed9" d="m 207.91748,-72.65252 c -0.48253,-0.42176 -0.65301,-1.00908 -1.48994,-5.13292 -1.06263,-5.23596 -1.15593,-6.41745 -0.55008,-6.96574 0.80856,-0.73173 4.67058,-1.42883 5.48909,-0.99078 0.24704,0.13222 0.56096,0.44929 0.6976,0.70461 0.30275,0.56569 2.08382,9.31312 2.08719,10.25085 0.005,1.41649 -0.51136,1.79714 -3.11393,2.29515 -2.17534,0.41627 -2.47713,0.40068 -3.11993,-0.16117 z m 3.27293,-2.42258 c 0,-0.96797 -1.51247,-8.19896 -1.76895,-8.45724 -0.36835,-0.37091 -1.25519,0.0351 -1.10687,0.50677 0.0643,0.20449 0.35036,1.61005 0.63567,3.12347 0.55571,2.94776 0.9241,4.7069 1.07488,5.13291 0.0515,0.14552 0.33477,0.26459 0.62946,0.26459 0.44077,0 0.53581,-0.1012 0.53581,-0.5705 z" id="path39" />
      <path style="fill:#f4eed9" d="m 199.64397,-71.22073 c -0.13458,-0.89746 -0.0342,-1.26201 1.06941,-3.88341 1.35213,-3.21175 1.51373,-4.04786 1.1114,-5.75046 -0.2419,-1.02369 -0.33836,-1.16417 -0.79932,-1.16417 -0.49782,0 -0.52094,0.0544 -0.45922,1.0796 l 0.065,1.07961 -1.21155,0.24331 c -0.66635,0.13382 -1.27344,0.24331 -1.34908,0.24331 -0.0756,0 -0.2584,-0.6081 -0.40613,-1.35133 -0.23133,-1.16381 -0.22342,-1.43872 0.057,-1.98102 0.37868,-0.73228 0.92155,-0.98196 3.09597,-1.42397 1.75381,-0.3565 2.67093,-0.20756 3.11665,0.50616 0.36706,0.58775 0.9063,3.05991 0.9063,4.15495 0,0.62731 -0.35081,1.82243 -1.06175,3.61706 -0.58396,1.47411 -1.02558,2.71637 -0.98138,2.76058 0.0442,0.0442 0.77026,-0.0267 1.61346,-0.15749 0.84319,-0.13083 1.60559,-0.15752 1.69422,-0.0593 0.0886,0.0982 0.21955,0.49098 0.29095,0.87283 0.16188,0.86585 0.0378,0.92392 -3.24883,1.51998 -1.33879,0.24281 -2.64126,0.49609 -2.89437,0.56285 -0.41108,0.10841 -0.47607,0.0156 -0.60874,-0.86907 z" id="path38" />
      <path style="fill:#f4eed9" d="m 192.56788,-68.31335 c 0.004,-0.35054 0.1446,-1.63103 0.94773,-8.62542 0.5268,-4.58794 0.73361,-6.52919 0.73771,-6.92464 0.005,-0.43486 0.4587,-0.69379 1.56914,-0.89453 l 0.82454,-0.14907 -0.1284,1.23245 c -0.14872,1.42755 -0.59992,5.41392 -1.10978,9.80496 -0.196,1.68804 -0.41626,3.63663 -0.48947,4.3302 -0.11745,1.11278 -0.19532,1.27828 -0.66227,1.40765 -1.03,0.28537 -1.69361,0.21403 -1.6892,-0.1816 z" id="path37" />
      <path style="fill:#f4eed9" d="m 185.42025,-68.05652 c -0.2554,-0.17889 -0.55683,-0.67895 -0.66984,-1.11125 -0.43187,-1.65195 -1.92333,-9.36391 -1.92333,-9.94506 0,-0.93715 0.80108,-1.52679 2.68764,-1.97825 0.90834,-0.21737 1.86136,-0.39596 2.11782,-0.39687 1.28108,-0.005 1.96251,0.90022 2.27067,3.01489 0.13502,0.92651 0.10722,1.02066 -0.3531,1.19568 -0.27481,0.10448 -0.86983,0.22341 -1.32226,0.26429 l -0.82261,0.0743 -0.22611,-1.05833 c -0.1861,-0.87108 -0.31455,-1.07087 -0.72599,-1.12918 -0.27494,-0.039 -0.57581,0.009 -0.66861,0.10584 -0.14771,0.15467 0.3094,3.19657 0.51058,3.39776 0.0421,0.042 0.69437,-0.0222 1.44957,-0.14289 1.51279,-0.24167 2.44207,-0.0512 2.83725,0.58162 0.12758,0.20428 0.44859,1.44494 0.71337,2.75701 0.67784,3.35901 0.41932,3.78474 -2.65551,4.37312 -2.11473,0.40467 -2.63857,0.40423 -3.21954,-0.003 z m 3.23289,-2.2232 c 0.19607,-0.31725 -0.34338,-3.13186 -0.64884,-3.38537 -0.33949,-0.28175 -1.44608,0.12805 -1.31328,0.48634 0.0533,0.14391 0.22336,0.90458 0.37784,1.6904 0.26551,1.35056 0.31283,1.42875 0.86456,1.42875 0.32102,0 0.64489,-0.0991 0.71972,-0.22012 z" id="path36" />
      <path style="fill:#f4eed9" d="m 177.36726,-66.25968 c -0.56482,-0.22668 -0.94423,-1.06857 -1.28323,-2.84742 -0.13311,-0.6985 -0.52776,-2.69138 -0.87699,-4.42861 -0.68112,-3.38825 -0.7512,-4.16619 -0.42947,-4.76736 0.28571,-0.53384 1.53329,-0.99016 3.55201,-1.29919 1.54049,-0.23582 1.77196,-0.22558 2.26945,0.10039 0.3047,0.19964 0.64139,0.57226 0.74821,0.82804 0.10682,0.25578 0.62524,2.67635 1.15205,5.37904 1.05184,5.39628 1.04676,5.71364 -0.10107,6.30721 -0.63719,0.32951 -3.47716,0.96354 -4.19351,0.93622 -0.19349,-0.007 -0.57034,-0.10112 -0.83745,-0.20832 z m 2.9737,-2.37117 c 0.0932,-0.24864 -1.33031,-7.78529 -1.60632,-8.50455 -0.0717,-0.18696 -0.37411,-0.33254 -0.69069,-0.33254 -0.55669,0 -0.56142,0.0126 -0.41713,1.11125 0.15038,1.14508 1.33439,7.25478 1.4972,7.72584 0.0503,0.14552 0.32237,0.26458 0.60461,0.26458 0.28224,0 0.55779,-0.11906 0.61233,-0.26458 z" id="path35" />
      <path style="fill:#f4eed9" d="m 165.95964,-63.77423 c -0.1371,-0.22183 -0.21082,-0.54624 -0.82707,-3.63954 -0.18554,-0.93133 -0.46229,-2.31246 -0.61499,-3.06917 -0.1527,-0.75671 -0.39196,-1.97114 -0.53168,-2.69875 l -0.25405,-1.32291 h -0.82405 c -0.55808,0 -0.82405,-0.0939 -0.82405,-0.29105 0,-0.16007 -0.0562,-0.57211 -0.12492,-0.91565 l -0.12493,-0.62462 1.61261,-0.35434 c 2.19679,-0.48271 2.62611,-0.46374 2.7585,0.12191 0.23178,1.02528 0.77618,3.70456 0.95694,4.70958 0.1047,0.58208 0.48433,2.52692 0.84364,4.32185 0.35931,1.79494 0.57882,3.33543 0.4878,3.42332 -0.30765,0.29708 -2.3877,0.57568 -2.53375,0.33937 z" id="path34" />
      <path style="fill:#f4eed9" d="m 169.38411,-64.08002 c 0.0598,-0.43656 0.20709,-1.69863 0.32734,-2.80458 0.12025,-1.10596 0.35757,-3.24909 0.52739,-4.7625 0.16982,-1.51342 0.44052,-3.92579 0.60156,-5.36081 0.16104,-1.43503 0.37598,-2.68926 0.47766,-2.78717 0.10167,-0.0979 0.63707,-0.24427 1.18977,-0.32524 l 1.00492,-0.1472 -0.095,0.60604 c -0.1245,0.79431 -0.28593,2.14197 -0.64305,5.36854 -1.22227,11.04305 -1.15469,10.63739 -1.80226,10.81758 -0.29033,0.0808 -0.79093,0.15638 -1.11245,0.16799 -0.55639,0.0201 -0.57934,-0.0172 -0.47589,-0.77265 z" id="path33" />
      <path style="fill:#f4eed9" d="m 156.85538,-62.33443 c -0.24983,-0.17498 -0.55365,-0.62742 -0.67516,-1.00541 -0.36666,-1.14064 -1.92814,-9.24054 -1.92814,-10.0019 0,-1.21444 0.57381,-1.58291 3.31646,-2.12969 2.25886,-0.45033 2.8433,-0.31016 3.35335,0.80427 0.50191,1.09663 2.20059,10.04727 2.02875,10.68981 -0.21847,0.81692 -0.98721,1.27059 -2.77189,1.63584 -1.99338,0.40796 -2.74874,0.40957 -3.32337,0.007 z m 3.19071,-2.17844 c 0.1102,-0.17831 -1.46516,-8.39595 -1.67448,-8.73463 -0.20181,-0.32654 -0.94772,-0.22507 -1.09105,0.14843 -0.11766,0.30661 1.31002,8.19078 1.55653,8.59571 0.12866,0.21136 1.07711,0.20389 1.209,-0.01 z" id="path32" />
      <path style="fill:#f4eed9" d="m 145.92534,-59.83138 c -0.47083,-1.65126 -2.47949,-12.62592 -2.33463,-12.75567 0.15419,-0.13811 5.37636,-1.28622 5.8378,-1.28346 0.0828,5e-4 0.25686,0.39556 0.38674,0.87791 0.28556,1.06048 0.26139,1.08096 -1.71658,1.45417 -0.80662,0.1522 -1.46309,0.38051 -1.45881,0.50736 0.0183,0.54375 0.57404,3.10551 0.70124,3.23271 0.0767,0.0767 0.62252,0.0279 1.213,-0.10843 0.59049,-0.1363 1.20555,-0.24781 1.3668,-0.24781 0.26926,0 0.87253,1.6242 0.6762,1.82053 -0.0465,0.0465 -0.64803,0.19315 -1.33683,0.32597 -0.6888,0.13282 -1.32872,0.3092 -1.42205,0.39195 -0.0933,0.0827 -0.0739,0.56938 0.0433,1.08141 0.43617,1.90675 0.85358,4.29604 0.76585,4.38377 -0.0499,0.0499 -0.49991,0.16771 -1.00005,0.26183 -0.50015,0.0941 -1.06745,0.23241 -1.26066,0.3073 -0.23423,0.0908 -0.38794,0.008 -0.46128,-0.24954 z" id="path31" />
      <path style="fill:#f4eed9" d="m 136.45938,-57.91766 c -0.0994,-1.43037 0.0817,-13.14061 0.2052,-13.2648 0.22981,-0.23114 2.79397,-0.81856 3.08523,-0.70679 0.12816,0.0492 0.64761,1.07628 1.15432,2.28245 0.50672,1.20616 1.04334,2.47878 1.1925,2.82803 0.14916,0.34925 0.89588,2.09892 1.65938,3.88816 0.7635,1.78924 1.34407,3.32454 1.29015,3.41178 -0.0539,0.0872 -0.45733,0.2187 -0.89647,0.29214 -0.43914,0.0734 -0.99236,0.18698 -1.22937,0.25231 -0.34014,0.0937 -0.50878,-0.0445 -0.80046,-0.65615 -0.29964,-0.62835 -0.45835,-0.75362 -0.83908,-0.66229 -0.25824,0.062 -0.82672,0.17737 -1.26328,0.25649 -0.43656,0.0791 -0.80396,0.20467 -0.81643,0.27903 -0.0125,0.0744 -0.0363,0.40384 -0.0529,0.73219 -0.0166,0.32835 -0.17311,0.67649 -0.34773,0.77364 -0.48493,0.26979 -2.32665,0.50093 -2.34104,0.29381 z m 4.22896,-4.29525 c 0.24972,-0.15806 0.16265,-0.56629 -0.51595,-2.41888 -0.449,-1.2258 -0.89375,-2.1809 -0.98834,-2.12245 -0.20533,0.1269 -0.23397,4.39374 -0.0309,4.59686 0.20315,0.20314 1.18243,0.16772 1.53515,-0.0555 z" id="path30" />
      <path style="fill:#f4eed9" d="m 128.21708,-56.16038 c 0,-0.14153 -2.31657,-11.75057 -2.46388,-12.34725 -0.13798,-0.55892 0.26935,-0.80552 1.66492,-1.00794 l 1.0002,-0.14508 0.7614,1.65261 c 2.08857,4.5332 2.53475,5.40712 2.59661,5.08592 0.0369,-0.19187 -0.23224,-1.8372 -0.59819,-3.65629 -0.36595,-1.81909 -0.60253,-3.37028 -0.52572,-3.44709 0.0768,-0.0768 0.61498,-0.24671 1.19593,-0.37755 1.28248,-0.28884 1.16899,-0.49905 1.95661,3.62428 0.53681,2.81031 0.73988,3.8171 1.51143,7.49367 0.18086,0.86186 0.25294,1.63171 0.16018,1.71079 -0.0928,0.0791 -0.68728,0.25759 -1.32116,0.3967 -1.36083,0.29865 -1.04273,0.6702 -2.96469,-3.46283 -1.2621,-2.71405 -2.18673,-4.29828 -1.84731,-3.16513 0.15682,0.52355 1.41367,6.80924 1.41367,7.06997 0,0.10677 -0.16669,0.24122 -0.37041,0.29877 -0.69716,0.19693 -2.16959,0.38455 -2.16959,0.27645 z" id="path29" />
      <path style="fill:#f4eed9" d="m 118.69208,-60.91696 v -6.77209 l 1.00542,-0.22268 c 2.54178,-0.56297 2.33287,-0.6025 2.81985,0.53358 0.24092,0.56203 0.56724,1.30782 0.72517,1.65729 1.73345,3.836 4.10438,9.73944 3.96679,9.87702 -0.0962,0.0962 -0.76607,0.23672 -1.48858,0.31224 -1.07007,0.11184 -1.31365,0.0803 -1.31365,-0.1699 0,-0.16895 -0.12744,-0.48148 -0.2832,-0.69449 -0.25905,-0.35428 -0.38084,-0.36413 -1.42875,-0.11556 -1.26476,0.30002 -1.45504,0.47064 -1.45981,1.30904 -0.004,0.69481 -0.0446,0.72059 -1.43199,0.90773 l -1.11125,0.1499 z m 3.98776,2.36064 c 0.37328,-0.0999 0.46879,-0.24259 0.38782,-0.57919 -0.2229,-0.92654 -1.52469,-4.14776 -1.67683,-4.14923 -0.0873,-8.4e-4 -0.15875,1.09384 -0.15875,2.43263 0,2.38407 0.01,2.43411 0.47625,2.43128 0.26194,-0.002 0.69912,-0.0626 0.97151,-0.13549 z" id="path28" />
      <path style="fill:#f4eed9" d="m 112.22267,-53.70535 c -0.18659,-0.43822 -0.75088,-1.79688 -1.25397,-3.01926 -2.57301,-6.25174 -3.49495,-8.54178 -3.49495,-8.68126 0,-0.19 2.48072,-0.69369 2.71211,-0.55068 0.0922,0.057 0.78096,1.86772 1.53061,4.02389 0.74966,2.15618 1.43439,3.84895 1.52162,3.76171 0.0872,-0.0872 0.0663,-1.3453 -0.0464,-2.79571 -0.11275,-1.45041 -0.20716,-3.32126 -0.2098,-4.15743 -0.005,-1.69127 -0.0688,-1.62279 1.74144,-1.87833 l 1.00542,-0.14192 v 6.77626 6.77625 l -1.11125,0.24491 c -0.61119,0.13469 -1.32372,0.28842 -1.5834,0.34161 -0.38333,0.0785 -0.53599,-0.0532 -0.81143,-0.70004 z" id="path27" />
      <path style="fill:#f4eed9" d="m 223.63894,-52.09223 c -0.42259,-0.42574 -0.66523,-1.32793 -1.54792,-5.75567 -0.97045,-4.86792 -1.02348,-5.29237 -0.72725,-5.82084 0.42341,-0.75536 1.24542,-1.13026 3.14094,-1.43248 2.70551,-0.43136 3.40702,0.0726 3.72568,2.67646 l 0.14429,1.179 -1.18061,0.26421 c -1.3355,0.29887 -1.61032,0.21281 -1.61032,-0.50427 0,-0.87488 -0.38107,-1.58879 -0.84807,-1.58879 -0.6225,0 -0.70746,0.42387 -0.42301,2.1103 0.23741,1.40754 0.28145,1.48797 0.81395,1.48686 0.30963,-6.5e-4 0.92495,-0.1017 1.36738,-0.22456 0.96096,-0.26686 2.03063,0.0139 2.41837,0.63479 0.2775,0.44435 1.11638,4.30936 1.11638,5.14355 0,1.11103 -1.69311,1.94639 -4.46756,2.20425 -1.30752,0.12152 -1.46115,0.0917 -1.92225,-0.37281 z m 3.25946,-1.88071 c 0.14619,0 0.172,-0.43925 0.0758,-1.28974 -0.21746,-1.92203 -0.41396,-2.30859 -1.17353,-2.30859 -0.74504,0 -0.79991,0.30161 -0.39174,2.15343 0.288,1.30664 0.54544,1.7221 0.96689,1.56037 0.1655,-0.0635 0.40067,-0.11547 0.5226,-0.11547 z" id="path26" />
      <path style="fill:#f4eed9" d="m 215.34077,-50.5969 c -0.11359,-0.71033 0.0139,-1.22737 0.74387,-3.01625 1.74908,-4.28645 1.72063,-4.18787 1.58639,-5.49808 -0.19901,-1.9424 -0.32556,-2.27004 -0.87676,-2.27004 -0.5961,0 -0.70519,0.27836 -0.51555,1.31545 0.14209,0.777 0.12639,0.8026 -0.61918,1.0097 -0.42073,0.11687 -1.07452,0.21302 -1.45288,0.21367 -0.58135,10e-4 -0.68791,-0.0759 -0.68791,-0.4964 0,-0.27367 -0.10559,-0.80048 -0.23465,-1.17069 -0.28187,-0.80856 0.0306,-1.74931 0.7323,-2.2045 0.515,-0.3341 3.27658,-0.99557 4.15643,-0.99557 1.03481,0 1.61309,0.6833 1.98971,2.35102 0.55748,2.46861 0.46433,3.39356 -0.61129,6.06951 -0.52388,1.30331 -0.9525,2.51123 -0.9525,2.68427 0,0.32576 0.17311,0.31707 2.2225,-0.11153 0.46566,-0.0974 0.91179,-0.1104 0.99139,-0.0289 0.0796,0.0815 0.17486,0.52565 0.21167,0.98704 l 0.0669,0.83889 -2.75167,0.58113 c -3.79102,0.80062 -3.82982,0.79811 -3.99881,-0.25871 z" id="path25" />
      <path style="fill:#f4eed9" d="m 207.76036,-48.71453 c -0.54766,-0.43135 -0.73543,-1.10417 -1.76958,-6.3408 -0.89094,-4.51142 -0.93324,-4.87586 -0.63326,-5.45595 0.35411,-0.68478 1.36793,-1.10354 3.62496,-1.49728 1.45528,-0.25388 2.49753,-0.0181 2.85257,0.6453 0.26204,0.48962 2.10703,9.69579 2.10703,10.51369 0,0.91632 -0.54328,1.48952 -1.75415,1.85074 -1.62524,0.48484 -3.98092,0.6361 -4.42757,0.2843 z m 2.88357,-2.00022 c 0.18415,-0.0707 0.33482,-0.31873 0.33482,-0.55126 0,-0.42338 -1.3883,-7.56578 -1.60615,-8.26318 -0.12276,-0.39296 -1.02949,-0.51772 -1.2437,-0.17113 -0.18498,0.2993 1.57741,8.76936 1.86238,8.95066 0.30193,0.19208 0.25027,0.18932 0.65265,0.0349 z" id="path24" />
      <path style="fill:#f4eed9" d="m 199.49212,-46.49726 c -0.0547,-0.0952 -0.16169,-0.51862 -0.23777,-0.94081 -0.11551,-0.64103 0.0766,-1.2833 1.16457,-3.89404 1.2771,-3.06452 1.30058,-3.15616 1.18607,-4.62987 -0.14831,-1.90878 -0.29583,-2.28393 -0.8661,-2.20257 -0.38934,0.0556 -0.44931,0.20501 -0.44931,1.11981 v 1.05571 l -1.31233,0.23577 c -1.51838,0.2728 -1.48455,0.30575 -1.68838,-1.64439 -0.13404,-1.28245 0.0988,-1.81342 1.00898,-2.30051 0.41911,-0.22431 3.29964,-0.83603 3.93784,-0.83627 1.28795,-4.8e-4 2.17328,1.98005 2.17614,4.86816 0.001,1.14554 -0.15774,1.76532 -0.94919,3.7027 -1.10076,2.69454 -1.14406,2.95342 -0.46547,2.78311 0.26681,-0.067 1.0147,-0.184 1.66199,-0.26008 1.11257,-0.13076 1.18424,-0.11089 1.31119,0.36339 0.36446,1.36167 0.39139,1.34314 -2.87388,1.97835 -1.65767,0.32248 -3.12441,0.62871 -3.25942,0.68052 -0.13502,0.0518 -0.29023,0.0163 -0.34493,-0.079 z" id="path23" />
      <path style="fill:#f4eed9" d="m 192.23608,-45.0008 c 0.0717,-0.56905 0.22237,-1.74901 0.33481,-2.62214 0.11244,-0.87312 0.30484,-2.54 0.42756,-3.70417 0.31263,-2.96587 0.77383,-6.99638 0.94719,-8.27757 0.1461,-1.07968 0.14738,-1.08116 1.12494,-1.30486 0.53828,-0.12318 1.03345,-0.19011 1.10039,-0.14874 0.12183,0.0753 -0.10179,2.48314 -0.74651,8.03784 -0.18917,1.62983 -0.47689,4.19306 -0.63937,5.69605 -0.30081,2.78248 -0.42122,3.07549 -1.26884,3.08777 -0.23284,0.003 -0.64546,0.0656 -0.91694,0.1383 -0.47948,0.12838 -0.48987,0.10257 -0.36323,-0.90248 z" id="path22" />
      <path style="fill:#f4eed9" d="m 185.23392,-44.21839 c -0.74721,-0.45563 -0.68778,-0.25814 -1.88436,-6.26205 -0.93864,-4.70969 -0.96468,-5.32689 -0.25071,-5.94102 0.55159,-0.47445 3.06344,-1.14981 4.27648,-1.14981 1.13382,0 1.7231,0.65003 2.10284,2.31966 0.18365,0.80744 0.33391,1.51139 0.33391,1.56433 0,0.18803 -1.34384,0.56101 -2.02131,0.56101 -0.64939,0 -0.70221,-0.0587 -0.93818,-1.04232 -0.27109,-1.13004 -0.60251,-1.40819 -1.17717,-0.98799 -0.3359,0.24561 -0.34356,0.39092 -0.0883,1.67499 0.15371,0.77333 0.33637,1.4981 0.4059,1.61061 0.0805,0.13021 0.64905,0.11503 1.56447,-0.0418 1.64562,-0.28188 2.36439,-0.0427 2.83914,0.94474 0.37812,0.78646 0.98411,4.66309 0.82687,5.28961 -0.17066,0.67993 -1.12011,1.1536 -3.10472,1.54891 -2.00843,0.40005 -2.08694,0.39763 -2.88483,-0.0889 z m 3.05303,-2.18801 c 0.21507,-0.25914 0.0916,-1.29294 -0.33496,-2.80404 -0.18475,-0.6545 -0.75091,-0.90348 -1.27696,-0.56155 -0.22515,0.14634 -0.23331,0.44521 -0.0419,1.53579 0.13069,0.74475 0.28672,1.52078 0.34674,1.72451 0.12695,0.43096 0.97982,0.49966 1.30712,0.10529 z" id="path21" />
      <path style="fill:#f4eed9" d="m 176.85459,-42.70169 c -0.56673,-0.6497 -0.73796,-1.16361 -1.21662,-3.65125 -0.2576,-1.33879 -0.65043,-3.354 -0.87296,-4.47825 -0.78932,-3.98778 -0.62301,-4.26476 2.97389,-4.95296 2.51102,-0.48044 3.35227,0.004 3.71171,2.13603 0.0778,0.46164 0.46698,2.48151 0.86481,4.48859 0.86873,4.38281 0.89307,4.98442 0.22858,5.64892 -0.96607,0.96607 -5.0463,1.5462 -5.68941,0.80892 z m 3.05744,-2.01083 c 0.30997,-0.2406 0.26087,-0.65768 -0.54163,-4.60141 -0.73134,-3.59405 -0.94767,-4.34928 -1.26307,-4.40956 -0.6687,-0.12781 -0.95448,0.30771 -0.77514,1.18132 0.0894,0.43545 0.27308,1.36323 0.4082,2.06173 0.63475,3.28113 1.07816,5.39712 1.19453,5.70036 0.15365,0.40042 0.51601,0.42547 0.97711,0.0676 z" id="path20" />
      <path style="fill:#f4eed9" d="m 169.1538,-40.55384 c 0.19337,-1.60201 0.67242,-5.75383 1.08431,-9.39743 0.75704,-6.69685 0.64393,-6.3062 1.84689,-6.37851 0.32014,-0.0192 0.70114,-0.0445 0.84666,-0.0562 0.14553,-0.0116 0.24365,0.12171 0.21806,0.29633 -0.0256,0.17463 -0.19054,1.651 -0.36657,3.28084 -0.41979,3.88672 -0.90577,8.23744 -1.17035,10.4775 -0.11688,0.98954 -0.21323,1.95395 -0.21411,2.14312 -9.8e-4,0.20915 -0.24082,0.3918 -0.61192,0.46602 -0.33566,0.0671 -0.8743,0.18832 -1.19697,0.26931 l -0.58667,0.14724 z" id="path19" />
      <path style="fill:#f4eed9" d="m 162.5821,-39.30276 c -0.24978,-0.0489 -0.59892,-0.2502 -0.77588,-0.44742 -0.28263,-0.31502 -0.99247,-2.5875 -0.99247,-3.17731 0,-0.24405 1.04679,-0.6161 2.01083,-0.71468 0.59892,-0.0613 0.64945,-0.006 0.88931,0.96548 0.30996,1.25593 0.32978,1.27732 1.02303,1.10332 0.52121,-0.13081 0.5474,-0.19569 0.41615,-1.03083 -0.077,-0.49018 -0.22787,-1.2356 -0.33518,-1.65648 l -0.19511,-0.76524 -0.8991,0.17394 c -2.75614,0.5332 -3.36595,0.10711 -3.96584,-2.77096 -0.56294,-2.70083 -0.54967,-3.49366 0.0688,-4.11217 0.53412,-0.53412 2.00724,-0.93905 4.05624,-1.11499 1.99953,-0.17169 2.0511,-0.0762 3.28036,6.07144 1.13307,5.66662 1.12953,6.03618 -0.0636,6.64058 -0.55741,0.28236 -3.78912,1.052 -4.00155,0.95298 -0.034,-0.0159 -0.26621,-0.0688 -0.51599,-0.11766 z m 1.61807,-7.7381 c -6e-4,-0.63396 -0.61204,-3.3957 -0.79154,-3.5752 -0.21393,-0.21393 -1.32488,0.1132 -1.32488,0.39013 0,0.0875 0.15909,0.89952 0.35355,1.80441 l 0.35354,1.64525 h 0.70479 c 0.42285,0 0.70468,-0.10584 0.70454,-0.26459 z" id="path18" />
      <path style="fill:#f4eed9" d="m 157.26324,-38.99752 c -0.11775,-0.49477 -0.62175,-2.97685 -1.12,-5.51572 l -0.90591,-4.61613 -0.74541,0.0653 c -0.71283,0.0624 -0.75307,0.029 -0.9205,-0.76624 -0.0963,-0.45735 -0.0982,-0.9084 -0.004,-1.00233 0.0939,-0.0939 1.017,-0.31836 2.05126,-0.49872 1.99932,-0.34865 2.22146,-0.28739 2.22879,0.6147 0.002,0.21932 0.0917,0.7432 0.19982,1.16416 0.10811,0.42097 0.34731,1.52739 0.53155,2.45873 0.18425,0.93133 0.61966,3.1147 0.9676,4.85194 0.34793,1.73723 0.63261,3.26338 0.63261,3.39145 0,0.20184 -1.80607,0.75244 -2.46815,0.75244 -0.1283,0 -0.32961,-0.40481 -0.44736,-0.89958 z" id="path17" />
      <path style="fill:#f4eed9" d="m 148.89883,-36.54621 c -0.0593,-0.0967 -0.17415,-0.70962 -0.25528,-1.36196 l -0.14749,-1.18606 0.81426,-0.13452 c 1.70362,-0.28147 1.91041,-0.21557 2.05424,0.65456 0.25524,1.5442 0.20436,1.68672 -0.65789,1.84298 -0.43657,0.0791 -0.99768,0.19268 -1.24691,0.25237 -0.24924,0.0597 -0.50166,0.0294 -0.56093,-0.0674 z" id="path16" />
      <path style="fill:#f4eed9" d="m 137.62716,-35.05396 c -0.0795,-0.45181 -0.37995,-2.0121 -0.66772,-3.46731 -0.28777,-1.45521 -0.65077,-3.31259 -0.80668,-4.1275 -0.15591,-0.81492 -0.42042,-2.18028 -0.5878,-3.03413 -0.21804,-1.11224 -0.23761,-1.57343 -0.069,-1.62642 0.34063,-0.10707 2.44825,-0.52529 2.64718,-0.52529 0.0927,0 0.87381,1.66548 1.73583,3.70105 0.86201,2.03558 1.63874,3.70245 1.72605,3.70417 0.0873,0.002 0.15875,-1.84589 0.15875,-4.10578 v -4.10889 l 0.89958,-0.13843 c 0.49477,-0.0761 1.19442,-0.18759 1.55478,-0.24769 0.73241,-0.12214 0.64074,-0.37099 1.49297,4.05307 0.17941,0.93134 0.45098,2.31246 0.6035,3.06917 0.77226,3.83148 0.99688,5.00921 1.02622,5.38061 0.0255,0.32256 -0.2024,0.46661 -1.1043,0.69803 -0.62502,0.16038 -1.1604,0.26323 -1.18972,0.22856 -0.064,-0.0757 -0.916,-4.19121 -1.24767,-6.02703 -0.12991,-0.71903 -0.30763,-1.37784 -0.39494,-1.46403 -0.0873,-0.0862 -0.15875,1.09181 -0.15875,2.61776 0,1.52595 -0.0714,2.81671 -0.15875,2.86836 -0.0873,0.0516 -0.54953,0.15852 -1.02714,0.23749 -0.83669,0.13835 -0.87831,0.118 -1.14072,-0.55767 -0.70377,-1.81207 -1.96919,-4.62517 -2.04601,-4.54835 -0.0472,0.0472 0.25529,1.77988 0.67209,3.85052 0.43326,2.15237 0.67848,3.84413 0.57255,3.95006 -0.1019,0.1019 -0.67139,0.24285 -1.26552,0.31321 l -1.08025,0.12794 z" id="path15" />
      <path style="fill:#f4eed9" d="m 133.52147,-34.22926 c -0.47009,-1.69277 -0.3834,-1.8127 1.50236,-2.07856 l 0.98591,-0.139 0.19494,1.13236 c 0.23921,1.38949 0.10195,1.5657 -1.36147,1.74784 l -1.09972,0.13687 z" id="path14" />
      <path style="fill:#f4eed9" d="m 126.21799,-32.43586 c -0.0562,-0.26193 -0.25286,-1.28587 -0.43704,-2.27541 -0.18419,-0.98954 -0.47531,-2.46592 -0.64693,-3.28084 -0.85235,-4.04723 -1.34278,-6.73893 -1.254,-6.88257 0.0542,-0.0877 0.36165,-0.20815 0.68322,-0.26767 0.32157,-0.0595 1.3943,-0.27091 2.38384,-0.46976 2.84385,-0.57147 2.90717,-0.57961 3.02489,-0.38915 0.0614,0.0994 0.17637,0.52555 0.25544,0.94702 l 0.14376,0.76631 -1.65913,0.39625 c -1.86533,0.44549 -1.77955,0.27918 -1.33537,2.58918 l 0.25887,1.34627 0.76702,-0.14051 c 2.31941,-0.42491 2.35431,-0.42315 2.35741,0.11885 0.002,0.27726 0.0572,0.7065 0.12359,0.95386 0.10948,0.40795 -0.0109,0.47592 -1.29565,0.73128 l -1.41636,0.28152 0.12861,0.96206 c 0.0707,0.52914 0.18794,1.33032 0.26046,1.78041 l 0.13185,0.81834 0.92647,-0.13043 c 0.50956,-0.0717 1.34103,-0.18885 1.84772,-0.26026 0.90517,-0.12757 0.92363,-0.11789 1.05833,0.55562 0.0754,0.37701 0.13709,0.79497 0.13709,0.92881 0,0.13586 -0.81806,0.41115 -1.85208,0.62326 -1.01865,0.20896 -2.25145,0.46855 -2.73956,0.57687 -1.38264,0.30683 -1.73822,0.25321 -1.85245,-0.27931 z" id="path13" />
      <path style="fill:#f4eed9" d="m 121.8636,-32.29389 c -0.13484,-0.64953 -0.19677,-1.22936 -0.13761,-1.28851 0.14721,-0.14721 1.62995,-0.48262 2.16094,-0.48882 0.33527,-0.004 0.48974,0.20952 0.68792,0.95048 0.39114,1.46243 0.3618,1.5266 -0.81319,1.77859 -1.62457,0.34841 -1.62857,0.34641 -1.89806,-0.95174 z" id="path12" />
      <path style="fill:#f4eed9" d="m 116.50779,-29.99308 c -0.0568,-0.0921 -0.35334,-1.50086 -0.659,-3.13069 -0.30566,-1.62984 -0.6435,-3.34434 -0.75075,-3.81 -0.10726,-0.46567 -0.34913,-1.58503 -0.53751,-2.48747 -0.33815,-1.61999 -0.3497,-1.63896 -0.91005,-1.49551 -1.15626,0.29602 -1.38048,0.21406 -1.55342,-0.56786 -0.22691,-1.0259 -0.10897,-1.22605 0.81598,-1.38466 0.44268,-0.0759 1.70111,-0.31929 2.79651,-0.54085 2.81042,-0.56842 2.92046,-0.55557 3.17631,0.37107 0.11753,0.42563 0.16913,0.84597 0.11468,0.93408 -0.0545,0.0881 -0.47951,0.22448 -0.94457,0.30305 -0.68512,0.11575 -0.84411,0.22969 -0.83793,0.6005 0.004,0.25171 0.46794,2.74365 1.03056,5.53765 0.56261,2.794 0.99522,5.11227 0.96135,5.15171 -0.0339,0.0394 -0.4738,0.16204 -0.97764,0.27245 -0.50383,0.1104 -1.07473,0.24869 -1.26866,0.30731 -0.19394,0.0586 -0.39907,0.0313 -0.45586,-0.0608 z" id="path1" />
    </g>
  </g>
</svg>
